<svg viewBox="0 0 330.0000305175781 200.00001525878906" xmlns="http://www.w3.org/2000/svg"><g><g><g><g><g><line x1="50" y1="178" x2="45" y2="178" style="visibility: inherit;" fill="rgb(0, 0, 0)" stroke="rgb(204, 204, 204)" stroke-width="1px"></line><line x1="50" y1="163.16666666666666" x2="45" y2="163.16666666666666" style="visibility: inherit;" fill="rgb(0, 0, 0)" stroke="rgb(204, 204, 204)" stroke-width="1px"></line><line x1="50" y1="148.33333333333334" x2="45" y2="148.33333333333334" style="visibility: inherit;" fill="rgb(0, 0, 0)" stroke="rgb(204, 204, 204)" stroke-width="1px"></line><line x1="50" y1="133.5" x2="45" y2="133.5" style="visibility: inherit;" fill="rgb(0, 0, 0)" stroke="rgb(204, 204, 204)" stroke-width="1px"></line><line x1="50" y1="118.66666666666669" x2="45" y2="118.66666666666669" style="visibility: inherit;" fill="rgb(0, 0, 0)" stroke="rgb(204, 204, 204)" stroke-width="1px"></line><line x1="50" y1="103.83333333333334" x2="45" y2="103.83333333333334" style="visibility: inherit;" fill="rgb(0, 0, 0)" stroke="rgb(204, 204, 204)" stroke-width="1px"></line><line x1="50" y1="89.00000000000001" x2="45" y2="89.00000000000001" style="visibility: inherit;" fill="rgb(0, 0, 0)" stroke="rgb(204, 204, 204)" stroke-width="1px"></line><line x1="50" y1="74.16666666666669" x2="45" y2="74.16666666666669" style="visibility: inherit;" fill="rgb(0, 0, 0)" stroke="rgb(204, 204, 204)" stroke-width="1px"></line><line x1="50" y1="59.33333333333336" x2="45" y2="59.33333333333336" style="visibility: inherit;" fill="rgb(0, 0, 0)" stroke="rgb(204, 204, 204)" stroke-width="1px"></line><line x1="50" y1="44.50000000000002" x2="45" y2="44.50000000000002" style="visibility: inherit;" fill="rgb(0, 0, 0)" stroke="rgb(204, 204, 204)" stroke-width="1px"></line><line x1="50" y1="29.66666666666668" x2="45" y2="29.66666666666668" style="visibility: inherit;" fill="rgb(0, 0, 0)" stroke="rgb(204, 204, 204)" stroke-width="1px"></line><line x1="50" y1="14.83333333333334" x2="45" y2="14.83333333333334" style="visibility: inherit;" fill="rgb(0, 0, 0)" stroke="rgb(204, 204, 204)" stroke-width="1px"></line><line x1="50" y1="0" x2="45" y2="0" style="visibility: inherit;" fill="rgb(0, 0, 0)" stroke="rgb(204, 204, 204)" stroke-width="1px"></line></g><g transform="translate(40, 0)"><text x="0" y="178" dx="0em" dy="0.3em" style="text-anchor: end; visibility: hidden; font-family: Roboto, sans-serif; font-size: 12px; font-weight: 200;" fill="rgb(50, 49, 63)" stroke="none" stroke-width="1px">-0.1</text><text x="0" y="163.16666666666666" dx="0em" dy="0.3em" style="text-anchor: end; visibility: inherit; font-family: Roboto, sans-serif; font-size: 12px; font-weight: 200;" fill="rgb(50, 49, 63)" stroke="none" stroke-width="1px">0</text><text x="0" y="148.33333333333334" dx="0em" dy="0.3em" style="text-anchor: end; visibility: hidden; font-family: Roboto, sans-serif; font-size: 12px; font-weight: 200;" fill="rgb(50, 49, 63)" stroke="none" stroke-width="1px">0.1</text><text x="0" y="133.5" dx="0em" dy="0.3em" style="text-anchor: end; visibility: inherit; font-family: Roboto, sans-serif; font-size: 12px; font-weight: 200;" fill="rgb(50, 49, 63)" stroke="none" stroke-width="1px">0.2</text><text x="0" y="118.66666666666669" dx="0em" dy="0.3em" style="text-anchor: end; visibility: hidden; font-family: Roboto, sans-serif; font-size: 12px; font-weight: 200;" fill="rgb(50, 49, 63)" stroke="none" stroke-width="1px">0.3</text><text x="0" y="103.83333333333334" dx="0em" dy="0.3em" style="text-anchor: end; visibility: inherit; font-family: Roboto, sans-serif; font-size: 12px; font-weight: 200;" fill="rgb(50, 49, 63)" stroke="none" stroke-width="1px">0.4</text><text x="0" y="89.00000000000001" dx="0em" dy="0.3em" style="text-anchor: end; visibility: hidden; font-family: Roboto, sans-serif; font-size: 12px; font-weight: 200;" fill="rgb(50, 49, 63)" stroke="none" stroke-width="1px">0.5</text><text x="0" y="74.16666666666669" dx="0em" dy="0.3em" style="text-anchor: end; visibility: inherit; font-family: Roboto, sans-serif; font-size: 12px; font-weight: 200;" fill="rgb(50, 49, 63)" stroke="none" stroke-width="1px">0.6</text><text x="0" y="59.33333333333336" dx="0em" dy="0.3em" style="text-anchor: end; visibility: hidden; font-family: Roboto, sans-serif; font-size: 12px; font-weight: 200;" fill="rgb(50, 49, 63)" stroke="none" stroke-width="1px">0.7</text><text x="0" y="44.50000000000002" dx="0em" dy="0.3em" style="text-anchor: end; visibility: inherit; font-family: Roboto, sans-serif; font-size: 12px; font-weight: 200;" fill="rgb(50, 49, 63)" stroke="none" stroke-width="1px">0.8</text><text x="0" y="29.66666666666668" dx="0em" dy="0.3em" style="text-anchor: end; visibility: hidden; font-family: Roboto, sans-serif; font-size: 12px; font-weight: 200;" fill="rgb(50, 49, 63)" stroke="none" stroke-width="1px">0.9</text><text x="0" y="14.83333333333334" dx="0em" dy="0.3em" style="text-anchor: end; visibility: inherit; font-family: Roboto, sans-serif; font-size: 12px; font-weight: 200;" fill="rgb(50, 49, 63)" stroke="none" stroke-width="1px">1</text><text x="0" y="0" dx="0em" dy="0.3em" style="text-anchor: end; visibility: hidden; font-family: Roboto, sans-serif; font-size: 12px; font-weight: 200;" fill="rgb(50, 49, 63)" stroke="none" stroke-width="1px">1.1</text></g><line x1="50" y1="0" x2="50" y2="178" fill="rgb(0, 0, 0)" stroke="rgb(204, 204, 204)" stroke-width="1px"></line></g></g><g transform="translate(50, 0)" clip-path="url(#clip_0)"><clipPath id="clip_0"><rect width="280" height="177"></rect></clipPath><g><g><g><line x1="0" y1="0" x2="0" y2="178" fill="rgb(0, 0, 0)" stroke="rgb(60, 60, 60)" stroke-width="1px" opacity="0.25"></line><line x1="23.333333333333332" y1="0" x2="23.333333333333332" y2="178" fill="rgb(0, 0, 0)" stroke="rgb(60, 60, 60)" stroke-width="1px" opacity="0.25"></line><line x1="46.666666666666664" y1="0" x2="46.666666666666664" y2="178" fill="rgb(0, 0, 0)" stroke="rgb(60, 60, 60)" stroke-width="1px" opacity="0.25"></line><line x1="70" y1="0" x2="70" y2="178" fill="rgb(0, 0, 0)" stroke="rgb(60, 60, 60)" stroke-width="1px" opacity="0.25"></line><line x1="93.33333333333333" y1="0" x2="93.33333333333333" y2="178" fill="rgb(0, 0, 0)" stroke="rgb(60, 60, 60)" stroke-width="1px" opacity="0.25"></line><line x1="116.66666666666667" y1="0" x2="116.66666666666667" y2="178" fill="rgb(0, 0, 0)" stroke="rgb(60, 60, 60)" stroke-width="1px" opacity="0.25"></line><line x1="140" y1="0" x2="140" y2="178" fill="rgb(0, 0, 0)" stroke="rgb(60, 60, 60)" stroke-width="1px" opacity="0.25"></line><line x1="163.33333333333334" y1="0" x2="163.33333333333334" y2="178" fill="rgb(0, 0, 0)" stroke="rgb(60, 60, 60)" stroke-width="1px" opacity="0.25"></line><line x1="186.66666666666666" y1="0" x2="186.66666666666666" y2="178" fill="rgb(0, 0, 0)" stroke="rgb(60, 60, 60)" stroke-width="1px" opacity="0.25"></line><line x1="210" y1="0" x2="210" y2="178" fill="rgb(0, 0, 0)" stroke="rgb(60, 60, 60)" stroke-width="1px" opacity="0.25"></line><line x1="233.33333333333334" y1="0" x2="233.33333333333334" y2="178" fill="rgb(0, 0, 0)" stroke="rgb(60, 60, 60)" stroke-width="1px" opacity="0.25"></line><line x1="256.66666666666663" y1="0" x2="256.66666666666663" y2="178" fill="rgb(0, 0, 0)" stroke="rgb(60, 60, 60)" stroke-width="1px" opacity="0.25"></line><line x1="280" y1="0" x2="280" y2="178" fill="rgb(0, 0, 0)" stroke="rgb(60, 60, 60)" stroke-width="1px" opacity="0.25"></line></g><g><line x1="0" y1="178" x2="280" y2="178" fill="rgb(0, 0, 0)" stroke="rgb(60, 60, 60)" stroke-width="1px" opacity="0.25"></line><line x1="0" y1="163.16666666666666" x2="280" y2="163.16666666666666" fill="rgb(0, 0, 0)" stroke="rgb(60, 60, 60)" stroke-width="1px" opacity="0.25"></line><line x1="0" y1="148.33333333333334" x2="280" y2="148.33333333333334" fill="rgb(0, 0, 0)" stroke="rgb(60, 60, 60)" stroke-width="1px" opacity="0.25"></line><line x1="0" y1="133.5" x2="280" y2="133.5" fill="rgb(0, 0, 0)" stroke="rgb(60, 60, 60)" stroke-width="1px" opacity="0.25"></line><line x1="0" y1="118.66666666666669" x2="280" y2="118.66666666666669" fill="rgb(0, 0, 0)" stroke="rgb(60, 60, 60)" stroke-width="1px" opacity="0.25"></line><line x1="0" y1="103.83333333333334" x2="280" y2="103.83333333333334" fill="rgb(0, 0, 0)" stroke="rgb(60, 60, 60)" stroke-width="1px" opacity="0.25"></line><line x1="0" y1="89.00000000000001" x2="280" y2="89.00000000000001" fill="rgb(0, 0, 0)" stroke="rgb(60, 60, 60)" stroke-width="1px" opacity="0.25"></line><line x1="0" y1="74.16666666666669" x2="280" y2="74.16666666666669" fill="rgb(0, 0, 0)" stroke="rgb(60, 60, 60)" stroke-width="1px" opacity="0.25"></line><line x1="0" y1="59.33333333333336" x2="280" y2="59.33333333333336" fill="rgb(0, 0, 0)" stroke="rgb(60, 60, 60)" stroke-width="1px" opacity="0.25"></line><line x1="0" y1="44.50000000000002" x2="280" y2="44.50000000000002" fill="rgb(0, 0, 0)" stroke="rgb(60, 60, 60)" stroke-width="1px" opacity="0.25"></line><line x1="0" y1="29.66666666666668" x2="280" y2="29.66666666666668" fill="rgb(0, 0, 0)" stroke="rgb(60, 60, 60)" stroke-width="1px" opacity="0.25"></line><line x1="0" y1="14.83333333333334" x2="280" y2="14.83333333333334" fill="rgb(0, 0, 0)" stroke="rgb(60, 60, 60)" stroke-width="1px" opacity="0.25"></line><line x1="0" y1="0" x2="280" y2="0" fill="rgb(0, 0, 0)" stroke="rgb(60, 60, 60)" stroke-width="1px" opacity="0.25"></line></g></g></g><g><g><line x1="0" y1="163.16666666666666" x2="280" y2="163.16666666666666" fill="rgb(0, 0, 0)" stroke="rgb(153, 153, 153)" stroke-width="1.5px"></line></g></g><g><g><line x1="23.333333333333332" y1="0" x2="23.333333333333332" y2="178" fill="rgb(0, 0, 0)" stroke="rgb(153, 153, 153)" stroke-width="1.5px"></line></g></g><g><g><g><g><g><path stroke="rgb(0, 119, 187)" stroke-width="2px" d="M23.333333333333332,109.55220862229667L25.666666666666664,109.55220862229667L28,109.55220862229667L30.333333333333336,109.55220862229667L32.666666666666664,109.55220862229667L35,109.55220862229667L37.333333333333336,109.55220862229667L39.666666666666664,109.55220862229667L42,109.55220862229667L44.33333333333333,109.55220862229667L46.666666666666664,109.55220862229667L49,109.55220862229663L51.33333333333333,109.55220862229663L53.66666666666667,109.55220862229667L56,109.55220862229667L58.333333333333336,109.55220862229667L60.66666666666667,109.55220862229667L63,109.55220862229667L65.33333333333333,109.55220862229667L67.66666666666667,109.55220862229667L70,109.55220862229667L72.33333333333334,108.83734024402463L74.66666666666667,108.40842523900938L77,108.15107840386422L79.33333333333333,107.99667108320011L81.66666666666667,107.90402697175217L84,107.84844060602522L86.33333333333334,107.81508882300002L88.66666666666666,107.08021853384567L91,105.92443563828358L93.33333333333333,101.65666897683035L95.66666666666667,98.3811503163135L98,96.41583928684335L100.33333333333333,93.80693298188409L102.66666666666666,92.24158924674741L105,87.0132273960603L107.33333333333334,86.02078724059159L109.66666666666667,82.565887264413L112,80.49294728691625L114.33333333333333,77.104602856807L116.66666666666667,75.07159620164023L119,73.1369332401871L121.33333333333334,71.26127649465202L123.66666666666666,67.27644303442943L126,64.17068398961077L128.33333333333331,59.44779268653732L130.66666666666666,54.46947746110134L133,55.05678670784466L135.33333333333334,55.409172255882204L137.66666666666666,56.3354625537601L140,52.60207938160318L142.33333333333331,53.93634786013645L144.66666666666669,52.59233204009229L147,48.926483135311514L149.33333333333334,51.73099011235935L151.66666666666666,53.41369429858693L154,52.99359887221745L156.33333333333334,52.02668264734311L158.66666666666666,52.161391881471275L161,50.812499483842835L163.33333333333334,48.57344257061824L165.66666666666666,51.51916577354166L168,51.856881757190415L170.33333333333331,49.914930903679455L172.66666666666669,48.03490142252028L175,46.90688373382475L177.33333333333331,45.51521415155482L179.66666666666669,45.3950713712455L182,45.32298570305992L184.33333333333334,45.99459327120118L186.66666666666666,44.25298090492805L189,46.06745289791695L191.33333333333334,42.15211977379961L193.66666666666666,39.80291989932921L196,39.10825894369961L198.33333333333334,42.265757215585026L200.66666666666666,42.730538240611L203,43.7242658246792L205.33333333333331,46.46508281882028L207.66666666666669,43.10555669539425L210,42.5195589594439L212.33333333333331,43.597678255978934L214.66666666666669,44.9594088029526L217,43.6318702239789L219.33333333333334,43.55020604564732L221.66666666666666,42.78634856959575L224,43.757752022070065L226.33333333333334,42.91087615544938L228.66666666666666,40.9730326973717L231,40.525185591577724L233.33333333333334,39.54161835904871L235.66666666666666,36.806897575831165L238,38.02550451865342L240.33333333333331,42.3309670661522L242.66666666666669,39.91022827474076L245,40.602361907051794L247.33333333333331,39.58792414833316L249.66666666666669,36.834681049401816L252,38.04217460279581L254.33333333333334,36.622090291132054" style="fill: none;" fill="none"></path></g><g><path stroke="rgb(255, 112, 67)" stroke-width="2px" d="M23.333333333333332,76.75889555613202L25.666666666666664,68.20812764515482L28,62.46781941700958L30.333333333333336,62.08625841878502L32.666666666666664,61.73548056557862L35,61.69438820827393L37.333333333333336,61.22651437780882L39.666666666666664,58.61074329115584L42,56.1968123905895L44.33333333333333,55.778341750356965L46.666666666666664,55.239809307296525L49,54.48496233551048L51.33333333333333,52.73529412060006L53.66666666666667,53.560592784924985L56,50.741502565967174L58.333333333333336,50.20332501017883L60.66666666666667,48.440142336073734L63,49.54283744696838L65.33333333333333,47.756012753160775L67.66666666666667,48.7002440819021L70,49.4107754806797L72.33333333333334,48.828983241683005L74.66666666666667,47.90385502789602L77,48.212863166327764L79.33333333333333,47.82221578908846L81.66666666666667,49.02796004865493L84,47.15917020891942L86.33333333333334,46.61394756842664L88.66666666666666,47.29490594011734L91,47.84749237162461L93.33333333333333,47.74700594679333L95.66666666666667,47.25467591779644L98,44.94309508866924L100.33333333333333,44.132199900362835L102.66666666666666,43.78967434195785L105,43.8721856246644L107.33333333333334,42.1935362535295L109.66666666666667,44.21062075952107L112,42.25258580323581L114.33333333333333,42.229867741295266L116.66666666666667,40.776107384486416L119,40.911942541897155L121.33333333333334,41.56949685848857L123.66666666666666,40.955938077882564L126,39.435699901968576L128.33333333333331,38.811580071007235L130.66666666666666,39.877237691018145L133,39.796567503728554L135.33333333333334,38.59606248384176L137.66666666666666,37.58773286090745L140,37.41477677194068L142.33333333333331,37.59902619302994L144.66666666666669,37.99760245669392L147,36.79661869638145L149.33333333333334,37.804184569715L151.66666666666666,36.53655642696085L154,36.64005583779735L156.33333333333334,36.12610579882092L158.66666666666666,35.097671016180584L161,36.06475120233943L163.33333333333334,35.20486979552573L165.66666666666666,34.25690280319334L168,34.1201607560381L170.33333333333331,33.318050768490544L172.66666666666669,34.70895244271514L175,33.81534085427298L177.33333333333331,33.85522358668591L179.66666666666669,33.15908846687922L182,32.88542246877144L184.33333333333334,32.14516964788629L186.66666666666666,31.989044566365457L189,32.18339612846319L191.33333333333334,31.43592723269111L193.66666666666666,31.13146096900413L196,32.53292226653483L198.33333333333334,31.50163137830012L200.66666666666666,32.17897129009196L203,31.433272329668394L205.33333333333331,30.84184141618025L207.66666666666669,30.775009479097584L210,30.302868632061525L212.33333333333331,31.747740253359026L214.66666666666669,32.3266366151273L217,31.80989813569984L219.33333333333334,31.211828437033116L221.66666666666666,30.132921858578626L224,29.34156637427194L226.33333333333334,29.154779694698163L228.66666666666666,28.03461631668919L231,27.074491678873567L233.33333333333334,28.65861117394758L235.66666666666666,29.89710948200225L238,29.200078948326098L240.33333333333331,30.51001675763959L242.66666666666669,31.151964369451413L245,31.105094788294274L247.33333333333331,29.348816910080853L249.66666666666669,28.72708833139704L252,29.074115943441164L254.33333333333334,29.282332510667686" style="fill: none;" fill="none"></path></g></g></g></g><g opacity="0.2"><g><g><g><path stroke="rgb(0, 119, 187)" stroke-width="2px" d="M23.333333333333332,109.55220862229667L25.666666666666664,109.55220862229667L28,109.55220862229667L30.333333333333336,109.55220862229667L32.666666666666664,109.55220862229667L35,109.55220862229667L37.333333333333336,109.55220862229667L39.666666666666664,109.55220862229667L42,109.55220862229667L44.33333333333333,109.55220862229667L46.666666666666664,109.55220862229667L49,109.55220862229667L51.33333333333333,109.55220862229667L53.66666666666667,109.55220862229667L56,109.55220862229667L58.333333333333336,109.55220862229667L60.66666666666667,109.55220862229667L63,109.55220862229667L65.33333333333333,109.55220862229667L67.66666666666667,109.55220862229667L70,109.55220862229667L72.33333333333334,107.76506119966507L74.66666666666667,107.76506119966507L77,107.76506119966507L79.33333333333333,107.76506119966507L81.66666666666667,107.76506119966507L84,107.76506119966507L86.33333333333334,107.76506119966507L88.66666666666666,105.9779137770335L91,104.1907619337241L93.33333333333333,95.25502039988838L95.66666666666667,93.46787297725679L98,93.46787297725679L100.33333333333333,89.89357371131581L102.66666666666666,89.89357371131581L105,79.1706847548485L107.33333333333334,84.53212702274324L109.66666666666667,77.38353733221692L112,77.38353733221692L114.33333333333333,72.02208622296654L116.66666666666667,72.02208622296654L119,70.23493880033494L121.33333333333334,68.44779137770337L123.66666666666666,61.2991928458214L126,59.51204542318981L128.33333333333331,52.363455732663496L130.66666666666666,47.00200462341311L133,55.93775057792666L135.33333333333334,55.93775057792666L137.66666666666666,57.72489800055824L140,47.00200462341311L142.33333333333331,55.93775057792666L144.66666666666669,50.57630831003191L147,43.427709778149946L149.33333333333334,55.93775057792666L151.66666666666666,55.93775057792666L154,52.363455732663496L156.33333333333334,50.57630831003191L158.66666666666666,52.363455732663496L161,48.78916088740032L163.33333333333334,45.214857200781516L165.66666666666666,55.93775057792666L168,52.363455732663496L170.33333333333331,47.00200462341311L172.66666666666669,45.214857200781516L175,45.214857200781516L177.33333333333331,43.427709778149946L179.66666666666669,45.214857200781516L182,45.214857200781516L184.33333333333334,47.00200462341311L186.66666666666666,41.64056235551836L189,48.78916088740032L191.33333333333334,36.27912008762362L193.66666666666666,36.27912008762362L196,38.0662675102552L198.33333333333334,47.00200462341311L200.66666666666666,43.427709778149946L203,45.214857200781516L205.33333333333331,50.57630831003191L207.66666666666669,38.0662675102552L210,41.64056235551836L212.33333333333331,45.214857200781516L214.66666666666669,47.00200462341311L217,41.64056235551836L219.33333333333334,43.427709778149946L221.66666666666666,41.64056235551836L224,45.214857200781516L226.33333333333334,41.64056235551836L228.66666666666666,38.0662675102552L231,39.85341493288679L233.33333333333334,38.0662675102552L235.66666666666666,32.70481640100481L238,39.85341493288679L240.33333333333331,48.78916088740032L242.66666666666669,36.27912008762362L245,41.64056235551836L247.33333333333331,38.0662675102552L249.66666666666669,32.70481640100481L252,39.85341493288679L254.33333333333334,34.4919638236364" style="fill: none;" fill="none"></path></g><g><path stroke="rgb(255, 112, 67)" stroke-width="2px" d="M23.333333333333332,76.75889555613202L25.666666666666664,63.077666898568495L28,56.957123517990134L30.333333333333336,61.63754268487297L32.666666666666664,61.277505000432356L35,61.63754268487297L37.333333333333336,60.55744731426241L39.666666666666664,54.79692393541338L42,52.636733194192274L44.33333333333333,55.156961619853995L46.666666666666664,54.43689509232841L49,53.356799721717856L51.33333333333333,50.11650476853054L53.66666666666667,54.79692393541338L56,46.51618097225826L58.333333333333336,49.396438241004965L60.66666666666667,45.79611444473269L63,51.196600139141104L65.33333333333333,45.076047917207106L67.66666666666667,50.11650476853054L70,50.47653361161552L72.33333333333334,47.95631402730944L74.66666666666667,46.51618097225826L77,48.676371713479384L79.33333333333333,47.23624749978386L81.66666666666667,50.836571296056135L84,44.35599023103716L86.33333333333334,45.79611444473269L88.66666666666666,48.3163428703944L91,48.676371713479384L93.33333333333333,47.596276342868826L95.66666666666667,46.51618097225826L98,41.47572412093483L100.33333333333333,42.915857175986005L102.66666666666666,43.27588601907097L105,43.99595254659655L107.33333333333334,39.67556222279869L109.66666666666667,47.23624749978386L112,39.31553337971373L114.33333333333333,42.19579064846041L116.66666666666667,38.59546685218813L119,41.115695277849866L121.33333333333334,42.55582833290102L123.66666666666666,40.0355999072393L126,37.155342638492606L128.33333333333331,37.87540032466255L130.66666666666666,41.47572412093483L133,39.67556222279869L135.33333333333334,36.79530495405199L137.66666666666666,36.07523842652641L140,37.155342638492606L142.33333333333331,37.87540032466255L144.66666666666669,38.59546685218813L147,34.995143055915854L149.33333333333334,39.31553337971373L151.66666666666666,34.635114212830885L154,36.79530495405199L156.33333333333334,35.35518074035647L158.66666666666666,33.55501884222033L161,37.51537148157759L163.33333333333334,33.91504768530531L165.66666666666666,32.834952314694746L168,33.91504768530531L170.33333333333331,32.11488578716917L172.66666666666669,36.79530495405199L175,32.474923471609785L177.33333333333331,33.91504768530531L179.66666666666669,32.11488578716917L182,32.474923471609785L184.33333333333334,31.03479041655861L186.66666666666666,31.75485694408419L189,32.474923471609785L191.33333333333334,30.314723889033033L193.66666666666666,30.674761573473646L196,34.635114212830885L198.33333333333334,29.95469504594805L200.66666666666666,33.194981157779715L203,30.314723889033033L205.33333333333331,29.95469504594805L207.66666666666669,30.674761573473646L210,29.594657361507416L212.33333333333331,33.91504768530531L214.66666666666669,33.194981157779715L217,31.03479041655861L219.33333333333334,30.314723889033033L221.66666666666666,28.514561990896873L224,28.15453314781189L226.33333333333334,28.874599675337485L228.66666666666666,26.35437124967575L231,25.634304722150173L233.33333333333334,31.03479041655861L235.66666666666666,31.75485694408419L238,28.15453314781189L240.33333333333331,32.474923471609785L242.66666666666669,32.11488578716917L245,31.03479041655861L247.33333333333331,26.714400092760734L249.66666666666669,27.794495463371277L252,29.594657361507416L254.33333333333334,29.594657361507416" style="fill: none;" fill="none"></path></g></g></g></g></g></g><g transform="translate(50, 178)" clip-path="url(#clip_1)"><clipPath id="clip_1"><rect width="280" height="21"></rect></clipPath><g><g><line x1="0" y1="0" x2="0" y2="5" style="visibility: inherit;" fill="rgb(0, 0, 0)" stroke="rgb(204, 204, 204)" stroke-width="1px"></line><line x1="23.333333333333332" y1="0" x2="23.333333333333332" y2="5" style="visibility: inherit;" fill="rgb(0, 0, 0)" stroke="rgb(204, 204, 204)" stroke-width="1px"></line><line x1="46.666666666666664" y1="0" x2="46.666666666666664" y2="5" style="visibility: inherit;" fill="rgb(0, 0, 0)" stroke="rgb(204, 204, 204)" stroke-width="1px"></line><line x1="70" y1="0" x2="70" y2="5" style="visibility: inherit;" fill="rgb(0, 0, 0)" stroke="rgb(204, 204, 204)" stroke-width="1px"></line><line x1="93.33333333333333" y1="0" x2="93.33333333333333" y2="5" style="visibility: inherit;" fill="rgb(0, 0, 0)" stroke="rgb(204, 204, 204)" stroke-width="1px"></line><line x1="116.66666666666667" y1="0" x2="116.66666666666667" y2="5" style="visibility: inherit;" fill="rgb(0, 0, 0)" stroke="rgb(204, 204, 204)" stroke-width="1px"></line><line x1="140" y1="0" x2="140" y2="5" style="visibility: inherit;" fill="rgb(0, 0, 0)" stroke="rgb(204, 204, 204)" stroke-width="1px"></line><line x1="163.33333333333334" y1="0" x2="163.33333333333334" y2="5" style="visibility: inherit;" fill="rgb(0, 0, 0)" stroke="rgb(204, 204, 204)" stroke-width="1px"></line><line x1="186.66666666666666" y1="0" x2="186.66666666666666" y2="5" style="visibility: inherit;" fill="rgb(0, 0, 0)" stroke="rgb(204, 204, 204)" stroke-width="1px"></line><line x1="210" y1="0" x2="210" y2="5" style="visibility: inherit;" fill="rgb(0, 0, 0)" stroke="rgb(204, 204, 204)" stroke-width="1px"></line><line x1="233.33333333333334" y1="0" x2="233.33333333333334" y2="5" style="visibility: inherit;" fill="rgb(0, 0, 0)" stroke="rgb(204, 204, 204)" stroke-width="1px"></line><line x1="256.66666666666663" y1="0" x2="256.66666666666663" y2="5" style="visibility: inherit;" fill="rgb(0, 0, 0)" stroke="rgb(204, 204, 204)" stroke-width="1px"></line><line x1="280" y1="0" x2="280" y2="5" style="visibility: inherit;" fill="rgb(0, 0, 0)" stroke="rgb(204, 204, 204)" stroke-width="1px"></line></g><g transform="translate(0, 8)"><text x="0" y="0" dx="0em" dy="0.95em" style="text-anchor: middle; visibility: hidden; font-family: Roboto, sans-serif; font-size: 12px; font-weight: 200;" fill="rgb(50, 49, 63)" stroke="none" stroke-width="1px">-10</text><text x="23.333333333333332" y="0" dx="0em" dy="0.95em" style="text-anchor: middle; visibility: inherit; font-family: Roboto, sans-serif; font-size: 12px; font-weight: 200;" fill="rgb(50, 49, 63)" stroke="none" stroke-width="1px">0</text><text x="46.666666666666664" y="0" dx="0em" dy="0.95em" style="text-anchor: middle; visibility: inherit; font-family: Roboto, sans-serif; font-size: 12px; font-weight: 200;" fill="rgb(50, 49, 63)" stroke="none" stroke-width="1px">10</text><text x="70" y="0" dx="0em" dy="0.95em" style="text-anchor: middle; visibility: inherit; font-family: Roboto, sans-serif; font-size: 12px; font-weight: 200;" fill="rgb(50, 49, 63)" stroke="none" stroke-width="1px">20</text><text x="93.33333333333333" y="0" dx="0em" dy="0.95em" style="text-anchor: middle; visibility: inherit; font-family: Roboto, sans-serif; font-size: 12px; font-weight: 200;" fill="rgb(50, 49, 63)" stroke="none" stroke-width="1px">30</text><text x="116.66666666666667" y="0" dx="0em" dy="0.95em" style="text-anchor: middle; visibility: inherit; font-family: Roboto, sans-serif; font-size: 12px; font-weight: 200;" fill="rgb(50, 49, 63)" stroke="none" stroke-width="1px">40</text><text x="140" y="0" dx="0em" dy="0.95em" style="text-anchor: middle; visibility: inherit; font-family: Roboto, sans-serif; font-size: 12px; font-weight: 200;" fill="rgb(50, 49, 63)" stroke="none" stroke-width="1px">50</text><text x="163.33333333333334" y="0" dx="0em" dy="0.95em" style="text-anchor: middle; visibility: inherit; font-family: Roboto, sans-serif; font-size: 12px; font-weight: 200;" fill="rgb(50, 49, 63)" stroke="none" stroke-width="1px">60</text><text x="186.66666666666666" y="0" dx="0em" dy="0.95em" style="text-anchor: middle; visibility: inherit; font-family: Roboto, sans-serif; font-size: 12px; font-weight: 200;" fill="rgb(50, 49, 63)" stroke="none" stroke-width="1px">70</text><text x="210" y="0" dx="0em" dy="0.95em" style="text-anchor: middle; visibility: inherit; font-family: Roboto, sans-serif; font-size: 12px; font-weight: 200;" fill="rgb(50, 49, 63)" stroke="none" stroke-width="1px">80</text><text x="233.33333333333334" y="0" dx="0em" dy="0.95em" style="text-anchor: middle; visibility: inherit; font-family: Roboto, sans-serif; font-size: 12px; font-weight: 200;" fill="rgb(50, 49, 63)" stroke="none" stroke-width="1px">90</text><text x="256.66666666666663" y="0" dx="0em" dy="0.95em" style="text-anchor: middle; visibility: inherit; font-family: Roboto, sans-serif; font-size: 12px; font-weight: 200;" fill="rgb(50, 49, 63)" stroke="none" stroke-width="1px">100</text><text x="280" y="0" dx="0em" dy="0.95em" style="text-anchor: middle; visibility: hidden; font-family: Roboto, sans-serif; font-size: 12px; font-weight: 200;" fill="rgb(50, 49, 63)" stroke="none" stroke-width="1px">110</text></g><line x1="0" y1="0" x2="280" y2="0" fill="rgb(0, 0, 0)" stroke="rgb(204, 204, 204)" stroke-width="1px"></line></g></g></g></g></svg>